<?xml version="1.0" standalone="no"?>
<!DOCTYPE svg PUBLIC "-//W3C//DTD SVG 20010904//EN"
 "http://www.w3.org/TR/2001/REC-SVG-20010904/DTD/svg10.dtd">
<svg version="1.0" xmlns="http://www.w3.org/2000/svg"
 width="208.000000pt" height="205.000000pt" viewBox="0 0 208.000000 205.000000"
 preserveAspectRatio="xMidYMid meet">

<g transform="translate(0.000000,205.000000) scale(0.100000,-0.100000)"
fill="#ff7b00ff" stroke="none">
<path d="M570 2020 c-249 -31 -439 -200 -507 -450 -15 -58 -17 -118 -17 -535
0 -523 2 -540 64 -670 78 -161 213 -271 390 -316 44 -11 157 -14 545 -14 545
0 538 -1 675 71 134 70 233 188 287 339 l28 80 0 495 c0 438 -2 502 -17 557
-57 207 -205 359 -418 429 -49 16 -101 18 -510 20 -250 1 -484 -2 -520 -6z
m290 -772 c51 -26 80 -73 80 -128 0 -53 -39 -121 -81 -145 l-37 -20 25 -19
c21 -15 153 -207 153 -221 0 -3 -35 -5 -78 -5 l-78 0 -59 94 c-51 84 -84 116
-115 116 -6 0 -10 -45 -10 -105 l0 -105 -70 0 -70 0 0 280 0 280 148 0 c133 0
152 -2 192 -22z m380 -168 c31 -102 58 -191 61 -199 3 -8 32 77 64 187 l60
202 72 0 c40 0 73 -3 73 -7 -1 -5 -43 -129 -94 -278 l-93 -270 -81 -3 -80 -3
-25 73 c-14 40 -57 167 -96 281 l-70 208 77 -3 76 -3 56 -185z"/>
<path d="M660 1095 l0 -75 40 0 c51 0 90 34 90 80 0 45 -31 70 -85 70 l-45 0
0 -75z"/>
</g>
</svg>
